<?xml version="1.0" encoding="UTF-8" standalone="no"?>
<!-- Generator: Adobe Illustrator 18.1.1, SVG Export Plug-In . SVG Version: 6.00 Build 0)  -->

<svg
   xmlns:dc="http://purl.org/dc/elements/1.1/"
   xmlns:cc="http://creativecommons.org/ns#"
   xmlns:rdf="http://www.w3.org/1999/02/22-rdf-syntax-ns#"
   xmlns:svg="http://www.w3.org/2000/svg"
   xmlns="http://www.w3.org/2000/svg"
   xmlns:sodipodi="http://sodipodi.sourceforge.net/DTD/sodipodi-0.dtd"
   xmlns:inkscape="http://www.inkscape.org/namespaces/inkscape"
   version="1.1"
   id="Capa_1"
   x="0px"
   y="0px"
   viewBox="0 0 16 16"
   xml:space="preserve"
   sodipodi:docname="edit.svg"
   width="16"
   height="16"
   inkscape:version="0.92.4 (5da689c313, 2019-01-14)"><metadata
   id="metadata45"><rdf:RDF><cc:Work
       rdf:about=""><dc:format>image/svg+xml</dc:format><dc:type
         rdf:resource="http://purl.org/dc/dcmitype/StillImage" /><dc:title></dc:title></cc:Work></rdf:RDF></metadata><defs
   id="defs43">
	

		
		
	</defs><sodipodi:namedview
   pagecolor="#ffffff"
   bordercolor="#666666"
   borderopacity="1"
   objecttolerance="10"
   gridtolerance="10"
   guidetolerance="10"
   inkscape:pageopacity="0"
   inkscape:pageshadow="2"
   inkscape:window-width="1079"
   inkscape:window-height="914"
   id="namedview41"
   showgrid="false"
   inkscape:zoom="32.88201"
   inkscape:cx="7.6904998"
   inkscape:cy="7.6904998"
   inkscape:window-x="544"
   inkscape:window-y="354"
   inkscape:window-maximized="0"
   inkscape:current-layer="Capa_1" />
<path
   style="fill:#030104;stroke-width:0.63720196"
   d="m 12.268172,4.9426544 -1.211321,-1.211321 c -0.46898,-0.468981 -1.2329864,-0.468981 -1.7026042,0 L 4.9575534,8.1293014 C 4.6147387,8.4714784 4.5236188,8.9691334 4.6810077,9.3960584 L 3.8105899,11.886879 c -0.039507,0.124254 0.1777793,0.34154 0.3026709,0.303308 l 2.49592,-0.868506 c 0.4250137,0.154203 0.9207568,0.06117 1.2610226,-0.279095 L 12.268172,6.6446204 c 0.468981,-0.46898 0.468981,-1.232986 0,-1.701966 z M 11.33722,6.4196884 8.0479828,9.7089244 C 7.8491758,9.9077318 7.5140076,9.8949878 7.2986333,9.6796144 L 6.3192539,8.7002354 C 6.1051541,8.4854984 6.09241,8.1496924 6.2905799,7.9508854 l 3.2892365,-3.289236 c 0.198807,-0.198807 0.5339756,-0.185426 0.7487136,0.02867 l 0.979379,0.980016 c 0.214737,0.215375 0.228118,0.55118 0.02931,0.74935 z"
   id="path2"
   inkscape:connector-curvature="0" />
<g
   id="g10"
   transform="translate(0,0.61900043)">
</g>
<g
   id="g12"
   transform="translate(0,0.61900043)">
</g>
<g
   id="g14"
   transform="translate(0,0.61900043)">
</g>
<g
   id="g16"
   transform="translate(0,0.61900043)">
</g>
<g
   id="g18"
   transform="translate(0,0.61900043)">
</g>
<g
   id="g20"
   transform="translate(0,0.61900043)">
</g>
<g
   id="g22"
   transform="translate(0,0.61900043)">
</g>
<g
   id="g24"
   transform="translate(0,0.61900043)">
</g>
<g
   id="g26"
   transform="translate(0,0.61900043)">
</g>
<g
   id="g28"
   transform="translate(0,0.61900043)">
</g>
<g
   id="g30"
   transform="translate(0,0.61900043)">
</g>
<g
   id="g32"
   transform="translate(0,0.61900043)">
</g>
<g
   id="g34"
   transform="translate(0,0.61900043)">
</g>
<g
   id="g36"
   transform="translate(0,0.61900043)">
</g>
<g
   id="g38"
   transform="translate(0,0.61900043)">
</g>
<circle
   style="fill:none;fill-opacity:1;stroke:#000000;stroke-width:1.60891223;stroke-miterlimit:4;stroke-dasharray:none"
   id="path857"
   cx="8"
   cy="8"
   r="7.1955438" /></svg>